<svg width="800" height="800" viewBox="0 0 800 800" fill="none" xmlns="http://www.w3.org/2000/svg">
<g clip-path="url(#clip0_1_2)">
<circle cx="400" cy="400" r="385" fill="#D9D9D9" stroke="#FF0000" stroke-width="30"/>
<path d="M357.242 383.699L502.164 497.944L406.145 261.107L357.242 383.699ZM400 29C195.046 29 29 195.046 29 400C29 604.954 195.046 771 400 771C604.954 771 771 604.954 771 400C771 195.046 604.954 29 400 29ZM579.216 564.005C578.845 578.613 566.788 590.091 552.156 589.72C544.899 589.72 539.357 586.938 531.635 580.654L340.223 426.063L275.97 586.938H220.413L382.609 197.225C386.482 187.44 395.78 181.156 406.284 181.527C416.301 181.156 425.738 187.324 429.239 197.225L576.828 552.527C578.15 556.029 579.239 559.785 579.239 563.286C579.239 563.518 579.216 563.518 579.216 564.005Z" fill="black"/>
</g>
<defs>
<clipPath id="clip0_1_2">
<rect width="800" height="800" fill="white"/>
</clipPath>
</defs>
</svg>
