<?xml version="1.0" encoding="UTF-8"?>
<!DOCTYPE svg PUBLIC "-//W3C//DTD SVG 1.1//EN" "http://www.w3.org/Graphics/SVG/1.1/DTD/svg11.dtd">
<svg xmlns="http://www.w3.org/2000/svg" version="1.1" width="460px" height="460px" style="shape-rendering:geometricPrecision; text-rendering:geometricPrecision; image-rendering:optimizeQuality; fill-rule:evenodd; clip-rule:evenodd" xmlns:xlink="http://www.w3.org/1999/xlink">

<g><path style="opacity:1" fill="#8a5c42" d="M 331.5,190.5 C 328.035,193.406 325.535,197.073 324,201.5C 323,207.5 322,213.5 321,219.5C 320.047,221.455 318.713,223.122 317,224.5C 316.829,217.321 316.329,210.321 315.5,203.5C 316.05,196.66 313.883,190.993 309,186.5C 307.559,183.845 306.726,181.012 306.5,178C 308.567,171.693 311.067,165.526 314,159.5C 317.864,146.78 314.697,136.28 304.5,128C 286.893,115.671 267.227,109.004 245.5,108C 220.304,106.075 195.971,109.742 172.5,119C 165.711,123.132 159.544,127.965 154,133.5C 150.753,139.416 149.753,145.749 151,152.5C 153.479,159.262 156.313,165.762 159.5,172C 159.274,175.012 158.441,177.845 157,180.5C 152.22,184.281 148.553,188.948 146,194.5C 143.698,204.173 142.198,213.839 141.5,223.5C 138.337,215.936 136.504,207.936 136,199.5C 134.663,195.493 132.83,191.827 130.5,188.5C 129.189,185.618 128.022,182.618 127,179.5C 118.809,143.745 122.809,109.411 139,76.5C 145.074,66.6722 152.741,58.3389 162,51.5C 160.048,55.2054 158.381,59.2054 157,63.5C 156.173,67.5411 156.34,71.5411 157.5,75.5C 162.547,69.4601 167.881,63.6268 173.5,58C 187.436,46.1923 203.102,37.1923 220.5,31C 228.471,29.6513 236.471,28.4846 244.5,27.5C 251.74,27.2517 252.073,28.085 245.5,30C 242.703,33.7988 239.536,37.2988 236,40.5C 233.707,43.9912 232.874,47.6579 233.5,51.5C 236.382,50.0392 239.382,48.8725 242.5,48C 253.547,45.5905 264.713,44.0905 276,43.5C 288.031,44.0395 299.865,45.8728 311.5,49C 316.086,50.9645 320.419,53.2978 324.5,56C 313.911,58.7947 304.244,63.4614 295.5,70C 307.313,71.1637 318.98,73.1637 330.5,76C 336.274,78.9334 341.941,82.1001 347.5,85.5C 348.287,86.2421 348.953,87.0754 349.5,88C 341.685,91.0828 336.185,96.5828 333,104.5C 332.712,116.736 334.378,128.736 338,140.5C 341.672,158.001 339.505,174.668 331.5,190.5 Z"/></g>
<g><path style="opacity:1" fill="#fee7bd" d="M 315.5,203.5 C 315.186,211.087 315.519,218.587 316.5,226C 314.634,230.635 313.634,235.468 313.5,240.5C 311.063,244.136 309.396,248.136 308.5,252.5C 302.974,264.548 296.641,276.214 289.5,287.5C 279.209,301.287 266.542,312.454 251.5,321C 237.265,326.455 222.932,326.788 208.5,322C 203.135,318.986 197.801,315.986 192.5,313C 187.938,308.269 183.271,303.769 178.5,299.5C 168.055,286.94 159.388,273.273 152.5,258.5C 150.575,252.401 148.242,246.401 145.5,240.5C 144.42,234.765 143.087,229.099 141.5,223.5C 142.198,213.839 143.698,204.173 146,194.5C 148.553,188.948 152.22,184.281 157,180.5C 158.441,177.845 159.274,175.012 159.5,172C 156.313,165.762 153.479,159.262 151,152.5C 149.753,145.749 150.753,139.416 154,133.5C 159.544,127.965 165.711,123.132 172.5,119C 195.971,109.742 220.304,106.075 245.5,108C 267.227,109.004 286.893,115.671 304.5,128C 314.697,136.28 317.864,146.78 314,159.5C 311.067,165.526 308.567,171.693 306.5,178C 306.726,181.012 307.559,183.845 309,186.5C 313.883,190.993 316.05,196.66 315.5,203.5 Z"/></g>
<g><path style="opacity:1" fill="#f8daa2" d="M 130.5,188.5 C 132.83,191.827 134.663,195.493 136,199.5C 136.504,207.936 138.337,215.936 141.5,223.5C 143.087,229.099 144.42,234.765 145.5,240.5C 140.817,238.659 136.483,236.159 132.5,233C 123.706,225.913 118.706,216.746 117.5,205.5C 117.776,196.575 122.109,190.909 130.5,188.5 Z"/></g>
<g><path style="opacity:1" fill="#f7daa2" d="M 331.5,190.5 C 337.047,191.544 340.547,194.877 342,200.5C 342.3,207.005 341.3,213.339 339,219.5C 335.45,223.383 332.283,227.549 329.5,232C 326.228,233.608 323.228,235.608 320.5,238C 318.257,239.136 315.924,239.97 313.5,240.5C 313.634,235.468 314.634,230.635 316.5,226C 315.519,218.587 315.186,211.087 315.5,203.5C 316.329,210.321 316.829,217.321 317,224.5C 318.713,223.122 320.047,221.455 321,219.5C 322,213.5 323,207.5 324,201.5C 325.535,197.073 328.035,193.406 331.5,190.5 Z"/></g>
<g><path style="opacity:1" fill="#677078" d="M 308.5,252.5 C 309.552,252.351 310.552,252.517 311.5,253C 330.699,268.564 341.032,288.73 342.5,313.5C 342.657,322.726 340.657,331.392 336.5,339.5C 343.645,343.49 350.645,347.657 357.5,352C 366.937,359.102 375.437,367.268 383,376.5C 386.051,381.934 388.551,387.6 390.5,393.5C 388.001,396.169 385.668,399.002 383.5,402C 377.145,407.028 370.811,412.028 364.5,417C 340.901,433.017 315.235,445.017 287.5,453C 281.985,454.89 276.319,455.724 270.5,455.5C 269.504,439.342 269.17,423.009 269.5,406.5C 273.628,404.936 277.628,403.102 281.5,401C 285.282,397.22 289.616,394.22 294.5,392C 297,388.167 300.167,385 304,382.5C 308.09,377.572 311.59,372.239 314.5,366.5C 309.344,370.12 304.344,374.62 299.5,380C 294.236,383.59 289.236,387.59 284.5,392C 279.505,394.831 274.505,397.665 269.5,400.5C 269.666,396.486 269.499,392.486 269,388.5C 266.413,385.966 263.747,385.966 261,388.5C 260.501,393.823 260.334,399.156 260.5,404.5C 246.21,409.194 231.543,410.694 216.5,409C 209.829,407.589 203.496,405.422 197.5,402.5C 197.818,397.968 197.485,393.634 196.5,389.5C 193.799,385.533 190.966,385.533 188,389.5C 187.502,392.482 187.335,395.482 187.5,398.5C 182.798,395.204 177.798,392.371 172.5,390C 163.775,383.264 155.775,375.598 148.5,367C 147.833,366.333 147.167,366.333 146.5,367C 156.045,384.712 169.712,398.212 187.5,407.5C 187.5,423.5 187.5,439.5 187.5,455.5C 139.644,447.245 98.9772,425.911 65.5,391.5C 69.9209,380.338 76.5876,370.672 85.5,362.5C 91.5222,358.822 97.1889,354.655 102.5,350C 110.57,345.634 118.57,341.301 126.5,337C 118.757,313.058 122.59,291.224 138,271.5C 141.536,268.299 144.703,264.799 147.5,261C 149.193,260.153 150.86,259.32 152.5,258.5C 159.388,273.273 168.055,286.94 178.5,299.5C 178.175,307.019 178.508,314.352 179.5,321.5C 182.996,341.653 192.996,357.82 209.5,370C 216.5,374.5 223.5,379 230.5,383.5C 236.543,379.478 242.877,375.978 249.5,373C 259.784,366.105 268.95,357.938 277,348.5C 277.986,345.194 279.486,342.194 281.5,339.5C 285.472,332.446 287.972,324.779 289,316.5C 289.5,306.839 289.666,297.172 289.5,287.5C 296.641,276.214 302.974,264.548 308.5,252.5 Z"/></g>
<g><path style="opacity:1" fill="#ddc492" d="M 289.5,287.5 C 289.666,297.172 289.5,306.839 289,316.5C 287.972,324.779 285.472,332.446 281.5,339.5C 281.44,338.957 281.107,338.624 280.5,338.5C 246.098,354.181 215.932,348.181 190,320.5C 185.897,315.295 182.563,309.628 180,303.5C 179.501,309.491 179.334,315.491 179.5,321.5C 178.508,314.352 178.175,307.019 178.5,299.5C 183.271,303.769 187.938,308.269 192.5,313C 197.801,315.986 203.135,318.986 208.5,322C 222.932,326.788 237.265,326.455 251.5,321C 266.542,312.454 279.209,301.287 289.5,287.5 Z"/></g>
<g><path style="opacity:1" fill="#f7dba3" d="M 281.5,339.5 C 279.486,342.194 277.986,345.194 277,348.5C 268.95,357.938 259.784,366.105 249.5,373C 242.877,375.978 236.543,379.478 230.5,383.5C 223.5,379 216.5,374.5 209.5,370C 192.996,357.82 182.996,341.653 179.5,321.5C 179.334,315.491 179.501,309.491 180,303.5C 182.563,309.628 185.897,315.295 190,320.5C 215.932,348.181 246.098,354.181 280.5,338.5C 281.107,338.624 281.44,338.957 281.5,339.5 Z"/></g>
<g><path style="opacity:1" fill="#444b56" d="M 269.5,406.5 C 269.5,404.5 269.5,402.5 269.5,400.5C 274.505,397.665 279.505,394.831 284.5,392C 289.236,387.59 294.236,383.59 299.5,380C 304.344,374.62 309.344,370.12 314.5,366.5C 311.59,372.239 308.09,377.572 304,382.5C 300.167,385 297,388.167 294.5,392C 289.616,394.22 285.282,397.22 281.5,401C 277.628,403.102 273.628,404.936 269.5,406.5 Z"/></g>
<g><path style="opacity:1" fill="#444a56" d="M 187.5,398.5 C 187.5,401.5 187.5,404.5 187.5,407.5C 169.712,398.212 156.045,384.712 146.5,367C 147.167,366.333 147.833,366.333 148.5,367C 155.775,375.598 163.775,383.264 172.5,390C 177.798,392.371 182.798,395.204 187.5,398.5 Z"/></g>
<g><path style="opacity:1" fill="#dfe0e0" d="M 196.5,389.5 C 196.5,411.833 196.5,434.167 196.5,456.5C 195.5,456.5 194.5,456.5 193.5,456.5C 191.379,456.675 189.379,456.341 187.5,455.5C 187.5,439.5 187.5,423.5 187.5,407.5C 187.5,404.5 187.5,401.5 187.5,398.5C 187.335,395.482 187.502,392.482 188,389.5C 190.966,385.533 193.799,385.533 196.5,389.5 Z"/></g>
<g><path style="opacity:1" fill="#e5e5e4" d="M 269.5,400.5 C 269.5,402.5 269.5,404.5 269.5,406.5C 269.17,423.009 269.504,439.342 270.5,455.5C 267.411,456.785 264.078,457.451 260.5,457.5C 260.5,442.167 260.5,426.833 260.5,411.5C 260.5,409.167 260.5,406.833 260.5,404.5C 260.334,399.156 260.501,393.823 261,388.5C 263.747,385.966 266.413,385.966 269,388.5C 269.499,392.486 269.666,396.486 269.5,400.5 Z"/></g>
<g><path style="opacity:1" fill="#444a56" d="M 197.5,402.5 C 203.496,405.422 209.829,407.589 216.5,409C 231.543,410.694 246.21,409.194 260.5,404.5C 260.5,406.833 260.5,409.167 260.5,411.5C 254.537,413.326 248.537,415.159 242.5,417C 226.849,420.167 211.849,418.334 197.5,411.5C 197.5,408.5 197.5,405.5 197.5,402.5 Z"/></g>
<g><path style="opacity:1" fill="#bdbebf" d="M 196.5,389.5 C 197.485,393.634 197.818,397.968 197.5,402.5C 197.5,405.5 197.5,408.5 197.5,411.5C 197.5,426.833 197.5,442.167 197.5,457.5C 195.901,457.768 194.568,457.434 193.5,456.5C 194.5,456.5 195.5,456.5 196.5,456.5C 196.5,434.167 196.5,411.833 196.5,389.5 Z"/></g>
<g><path style="opacity:1" fill="#677078" d="M 197.5,411.5 C 211.849,418.334 226.849,420.167 242.5,417C 248.537,415.159 254.537,413.326 260.5,411.5C 260.5,426.833 260.5,442.167 260.5,457.5C 257.017,458.01 253.684,458.677 250.5,459.5C 236.5,459.5 222.5,459.5 208.5,459.5C 205.003,458.598 201.337,457.931 197.5,457.5C 197.5,442.167 197.5,426.833 197.5,411.5 Z"/></g>
</svg>
